# Blender v3.0.0 OBJ File: ''
# www.blender.org
mtllib models/diamond/diamond.mtl
o Cube_Cube.002
v 0.000000 0.000000 -2.000000
v -1.000000 1.000000 0.000000
v 1.000000 1.000000 -0.000000
v -1.000000 -1.000000 0.000000
v 1.000000 -1.000000 -0.000000
v 0.000000 0.000000 2.000000
vt 0.375000 0.000000
vt 0.625000 0.000000
vt 0.625000 0.250000
vt 0.375000 0.250000
vt 0.625000 0.500000
vt 0.375000 0.500000
vt 0.625000 0.750000
vt 0.375000 0.750000
vt 0.625000 1.000000
vt 0.875000 0.500000
vt 0.875000 0.750000
vt 0.375000 0.000000
vt 0.625000 0.000000
vt 0.625000 0.250000
vt 0.375000 0.250000
vt 0.625000 0.500000
vt 0.375000 0.500000
vt 0.625000 0.750000
vt 0.375000 0.750000
vt 0.625000 1.000000
vn 0.0000 0.8944 -0.4472
vn 0.8944 0.0000 -0.4472
vn 0.0000 -0.8944 -0.4472
vn -0.8944 0.0000 -0.4472
vn 0.0000 0.0000 1.0000
vn 0.0000 0.8944 0.4472
vn -0.8944 0.0000 0.4472
vn 0.0000 -0.8944 0.4472
vn 0.8944 0.0000 0.4472
usemtl None
s off
f 1/1/1 2/2/1 3/3/1
f 1/4/2 3/3/2 5/5/2
f 1/6/3 5/5/3 4/7/3
f 1/8/4 4/7/4 2/9/4
f 5/5/5 3/10/5 2/11/5 4/7/5
f 6/12/6 3/13/6 2/14/6
f 6/15/7 2/14/7 4/16/7
f 6/17/8 4/16/8 5/18/8
f 6/19/9 5/18/9 3/20/9
