# Blender v3.0.0 OBJ File: 'chess_board.blend'
# www.blender.org
mtllib models/chess_board/chess_board.mtl
o Black_Squares_Plane.057
v 4.000000 4.000000 0.000000
v 4.000000 2.000000 0.000000
v 6.000000 4.000000 0.000000
v 6.000000 2.000000 0.000000
v 6.000000 0.000000 0.000000
v 8.000000 2.000000 0.000000
v 8.000000 0.000000 0.000000
v 2.000000 2.000000 0.000000
v 2.000000 0.000000 0.000000
v 4.000000 0.000000 0.000000
v -6.000000 2.000000 0.000000
v -6.000000 0.000000 0.000000
v -4.000000 2.000000 0.000000
v -4.000000 0.000000 0.000000
v -2.000000 2.000000 0.000000
v -2.000000 0.000000 0.000000
v 0.000000 2.000000 0.000000
v 0.000000 0.000000 0.000000
v 0.000000 4.000000 0.000000
v 2.000000 4.000000 0.000000
v -8.000000 4.000000 0.000000
v -8.000000 2.000000 0.000000
v -6.000000 4.000000 0.000000
v -4.000000 4.000000 0.000000
v -2.000000 4.000000 0.000000
v 4.000000 8.000000 0.000000
v 4.000000 6.000000 0.000000
v 6.000000 8.000000 0.000000
v 6.000000 6.000000 0.000000
v 8.000000 6.000000 0.000000
v 8.000000 4.000000 0.000000
v 2.000000 6.000000 0.000000
v -6.000000 6.000000 0.000000
v -4.000000 6.000000 0.000000
v -2.000000 6.000000 0.000000
v 0.000000 6.000000 0.000000
v 0.000000 8.000000 0.000000
v 2.000000 8.000000 0.000000
v -8.000000 8.000000 0.000000
v -8.000000 6.000000 0.000000
v -6.000000 8.000000 0.000000
v -4.000000 8.000000 0.000000
v -2.000000 8.000000 0.000000
v 4.000000 -4.000000 0.000000
v 4.000000 -6.000000 0.000000
v 6.000000 -4.000000 0.000000
v 6.000000 -6.000000 0.000000
v 6.000000 -8.000000 0.000000
v 8.000000 -6.000000 0.000000
v 8.000000 -8.000000 0.000000
v 2.000000 -6.000000 0.000000
v 2.000000 -8.000000 0.000000
v 4.000000 -8.000000 0.000000
v -6.000000 -6.000000 0.000000
v -6.000000 -8.000000 0.000000
v -4.000000 -6.000000 0.000000
v -4.000000 -8.000000 0.000000
v -2.000000 -6.000000 0.000000
v -2.000000 -8.000000 0.000000
v 0.000000 -6.000000 0.000000
v 0.000000 -8.000000 0.000000
v 0.000000 -4.000000 0.000000
v 2.000000 -4.000000 0.000000
v -8.000000 -4.000000 0.000000
v -8.000000 -6.000000 0.000000
v -6.000000 -4.000000 0.000000
v -4.000000 -4.000000 0.000000
v -2.000000 -4.000000 0.000000
v 4.000000 -2.000000 0.000000
v 6.000000 -2.000000 -0.002037
v 8.000000 -2.000000 0.000000
v 8.000000 -4.000000 0.000000
v 2.000000 -2.000000 0.000000
v -6.000000 -2.000000 0.000000
v -4.000000 -2.000000 0.000000
v -2.000000 -2.000000 0.000000
v 0.000000 -2.000000 0.000000
v -8.000000 0.000000 0.000000
v -8.000000 -2.000000 0.000000
vt 1.000000 0.000000
vt 0.000000 1.000000
vt 0.000000 0.000000
vt 1.000000 0.000000
vt 0.000000 1.000000
vt 0.000000 0.000000
vt 1.000000 0.000000
vt 0.000000 1.000000
vt 0.000000 0.000000
vt 1.000000 0.000000
vt 0.000000 1.000000
vt 0.000000 0.000000
vt 1.000000 0.000000
vt 0.000000 1.000000
vt 0.000000 0.000000
vt 1.000000 0.000000
vt 0.000000 1.000000
vt 0.000000 0.000000
vt 1.000000 0.000000
vt 0.000000 1.000000
vt 0.000000 0.000000
vt 1.000000 0.000000
vt 0.000000 1.000000
vt 0.000000 0.000000
vt 1.000000 0.000000
vt 0.000000 1.000000
vt 0.000000 0.000000
vt 1.000000 0.000000
vt 0.000000 1.000000
vt 0.000000 0.000000
vt 1.000000 0.000000
vt 0.000000 1.000000
vt 0.000000 0.000000
vt 1.000000 0.000000
vt 0.000000 1.000000
vt 0.000000 0.000000
vt 1.000000 0.000000
vt 0.000000 1.000000
vt 0.000000 0.000000
vt 1.000000 0.000000
vt 0.000000 1.000000
vt 0.000000 0.000000
vt 1.000000 0.000000
vt 0.000000 1.000000
vt 0.000000 0.000000
vt 1.000000 0.000000
vt 0.000000 1.000000
vt 0.000000 0.000000
vt 1.000000 0.000000
vt 0.000000 1.000000
vt 0.000000 0.000000
vt 1.000000 0.000000
vt 0.000000 1.000000
vt 0.000000 0.000000
vt 1.000000 0.000000
vt 0.000000 1.000000
vt 0.000000 0.000000
vt 1.000000 0.000000
vt 0.000000 1.000000
vt 0.000000 0.000000
vt 1.000000 0.000000
vt 0.000000 1.000000
vt 0.000000 0.000000
vt 1.000000 0.000000
vt 0.000000 1.000000
vt 0.000000 0.000000
vt 1.000000 0.000000
vt 0.000000 1.000000
vt 0.000000 0.000000
vt 1.000000 0.000000
vt 0.000000 1.000000
vt 0.000000 0.000000
vt 1.000000 0.000000
vt 0.000000 1.000000
vt 0.000000 0.000000
vt 1.000000 0.000000
vt 0.000000 1.000000
vt 0.000000 0.000000
vt 1.000000 0.000000
vt 0.000000 1.000000
vt 0.000000 0.000000
vt 1.000000 0.000000
vt 0.000000 1.000000
vt 0.000000 0.000000
vt 1.000000 0.000000
vt 0.000000 1.000000
vt 0.000000 0.000000
vt 1.000000 0.000000
vt 0.000000 1.000000
vt 0.000000 0.000000
vt 1.000000 0.000000
vt 0.000000 1.000000
vt 0.000000 0.000000
vt 1.000000 0.000000
vt 0.000000 1.000000
vt 0.000000 0.000000
vt 1.000000 1.000000
vt 1.000000 1.000000
vt 1.000000 1.000000
vt 1.000000 1.000000
vt 1.000000 1.000000
vt 1.000000 1.000000
vt 1.000000 1.000000
vt 1.000000 1.000000
vt 1.000000 1.000000
vt 1.000000 1.000000
vt 1.000000 1.000000
vt 1.000000 1.000000
vt 1.000000 1.000000
vt 1.000000 1.000000
vt 1.000000 1.000000
vt 1.000000 1.000000
vt 1.000000 1.000000
vt 1.000000 1.000000
vt 1.000000 1.000000
vt 1.000000 1.000000
vt 1.000000 1.000000
vt 1.000000 1.000000
vt 1.000000 1.000000
vt 1.000000 1.000000
vt 1.000000 1.000000
vt 1.000000 1.000000
vt 1.000000 1.000000
vt 1.000000 1.000000
vt 1.000000 1.000000
vt 1.000000 1.000000
vt 1.000000 1.000000
vt 1.000000 1.000000
vn 0.0000 0.0000 1.0000
vn -0.0010 0.0010 1.0000
vn 0.0010 -0.0010 1.0000
usemtl ChessBoardBlack
s off
f 2/1/1 3/2/1 1/3/1
f 5/4/1 6/5/1 4/6/1
f 9/7/1 2/8/1 8/9/1
f 12/10/1 13/11/1 11/12/1
f 16/13/1 17/14/1 15/15/1
f 17/16/1 20/17/1 19/18/1
f 22/19/1 23/20/1 21/21/1
f 13/22/1 25/23/1 24/24/1
f 27/25/1 28/26/1 26/27/1
f 3/28/1 30/29/1 29/30/1
f 20/31/1 27/32/1 32/33/1
f 23/34/1 34/35/1 33/36/1
f 25/37/1 36/38/1 35/39/1
f 36/40/1 38/41/1 37/42/1
f 40/43/1 41/44/1 39/45/1
f 34/46/1 43/47/1 42/48/1
f 45/49/1 46/50/1 44/51/1
f 48/52/1 49/53/1 47/54/1
f 52/55/1 45/56/1 51/57/1
f 55/58/1 56/59/1 54/60/1
f 59/61/1 60/62/1 58/63/1
f 60/64/1 63/65/1 62/66/1
f 65/67/1 66/68/1 64/69/1
f 56/70/1 68/71/1 67/72/1
f 69/73/1 5/74/1 10/75/1
f 46/76/2 71/77/2 70/78/2
f 63/79/1 69/80/1 73/81/1
f 66/82/1 75/83/1 74/84/1
f 68/85/1 77/86/1 76/87/1
f 77/88/1 9/89/1 18/90/1
f 79/91/1 12/92/1 78/93/1
f 75/94/1 16/95/1 14/96/1
f 2/1/1 4/97/1 3/2/1
f 5/4/1 7/98/1 6/5/1
f 9/7/1 10/99/1 2/8/1
f 12/10/1 14/100/1 13/11/1
f 16/13/1 18/101/1 17/14/1
f 17/16/1 8/102/1 20/17/1
f 22/19/1 11/103/1 23/20/1
f 13/22/1 15/104/1 25/23/1
f 27/25/1 29/105/1 28/26/1
f 3/28/1 31/106/1 30/29/1
f 20/31/1 1/107/1 27/32/1
f 23/34/1 24/108/1 34/35/1
f 25/37/1 19/109/1 36/38/1
f 36/40/1 32/110/1 38/41/1
f 40/43/1 33/111/1 41/44/1
f 34/46/1 35/112/1 43/47/1
f 45/49/1 47/113/1 46/50/1
f 48/52/1 50/114/1 49/53/1
f 52/55/1 53/115/1 45/56/1
f 55/58/1 57/116/1 56/59/1
f 59/61/1 61/117/1 60/62/1
f 60/64/1 51/118/1 63/65/1
f 65/67/1 54/119/1 66/68/1
f 56/70/1 58/120/1 68/71/1
f 69/73/3 70/121/3 5/74/3
f 46/76/1 72/122/1 71/77/1
f 63/79/1 44/123/1 69/80/1
f 66/82/1 67/124/1 75/83/1
f 68/85/1 62/125/1 77/86/1
f 77/88/1 73/126/1 9/89/1
f 79/91/1 74/127/1 12/92/1
f 75/94/1 76/128/1 16/95/1
o White_Squares_Plane.059
v -4.000000 4.000000 0.000000
v -2.000000 4.000000 0.000000
v -4.000000 6.000000 0.000000
v -2.000000 6.000000 0.000000
v -0.000000 6.000000 0.000000
v -2.000000 8.000000 0.000000
v -0.000000 8.000000 0.000000
v -2.000000 2.000000 0.000000
v -0.000000 2.000000 0.000000
v -0.000000 4.000000 0.000000
v -2.000000 -6.000000 0.000000
v 0.000000 -6.000000 0.000000
v -2.000000 -4.000000 0.000000
v 0.000000 -4.000000 0.000000
v -2.000000 -2.000000 0.000000
v 0.000000 -2.000000 0.000000
v -2.000000 -0.000000 0.000000
v 0.000000 0.000000 0.000000
v -4.000000 -0.000000 0.000000
v -4.000000 2.000000 0.000000
v -4.000000 -8.000000 0.000000
v -2.000000 -8.000000 0.000000
v -4.000000 -6.000000 0.000000
v -4.000000 -4.000000 0.000000
v -4.000000 -2.000000 0.000000
v -8.000000 4.000000 0.000000
v -6.000000 4.000000 0.000000
v -8.000000 6.000000 0.000000
v -6.000000 6.000000 0.000000
v -6.000000 8.000000 0.000000
v -4.000000 8.000000 0.000000
v -6.000000 2.000000 0.000000
v -6.000000 -6.000000 0.000000
v -6.000000 -4.000000 0.000000
v -6.000000 -2.000000 0.000000
v -6.000000 -0.000000 0.000000
v -8.000000 -0.000000 0.000000
v -8.000000 2.000000 0.000000
v -8.000000 -8.000000 0.000000
v -6.000000 -8.000000 0.000000
v -8.000000 -6.000000 0.000000
v -8.000000 -4.000000 0.000000
v -8.000000 -2.000000 0.000000
v 4.000000 4.000000 0.000000
v 6.000000 4.000000 0.000000
v 4.000000 6.000000 0.000000
v 6.000000 6.000000 0.000000
v 8.000000 6.000000 0.000000
v 6.000000 8.000000 0.000000
v 8.000000 8.000000 0.000000
v 6.000000 2.000000 0.000000
v 8.000000 2.000000 0.000000
v 8.000000 4.000000 0.000000
v 6.000000 -6.000000 0.000000
v 8.000000 -6.000000 0.000000
v 6.000000 -4.000000 0.000000
v 8.000000 -4.000000 0.000000
v 6.000000 -2.000000 0.000000
v 8.000000 -2.000000 0.000000
v 6.000000 0.000000 0.000000
v 8.000000 0.000000 0.000000
v 4.000000 0.000000 0.000000
v 4.000000 2.000000 0.000000
v 4.000000 -8.000000 0.000000
v 6.000000 -8.000000 0.000000
v 4.000000 -6.000000 0.000000
v 4.000000 -4.000000 0.000000
v 4.000000 -2.000000 0.000000
v 2.000000 4.000000 0.000000
v 2.000000 6.000000 -0.002037
v 2.000000 8.000000 0.000000
v 4.000000 8.000000 0.000000
v 2.000000 2.000000 0.000000
v 2.000000 -6.000000 0.000000
v 2.000000 -4.000000 0.000000
v 2.000000 -2.000000 0.000000
v 2.000000 0.000000 0.000000
v 0.000000 -8.000000 0.000000
v 2.000000 -8.000000 0.000000
vt 1.000000 0.000000
vt 0.000000 1.000000
vt 0.000000 0.000000
vt 1.000000 0.000000
vt 0.000000 1.000000
vt 0.000000 0.000000
vt 1.000000 0.000000
vt 0.000000 1.000000
vt 0.000000 0.000000
vt 1.000000 0.000000
vt 0.000000 1.000000
vt 0.000000 0.000000
vt 1.000000 0.000000
vt 0.000000 1.000000
vt 0.000000 0.000000
vt 1.000000 0.000000
vt 0.000000 1.000000
vt 0.000000 0.000000
vt 1.000000 0.000000
vt 0.000000 1.000000
vt 0.000000 0.000000
vt 1.000000 0.000000
vt 0.000000 1.000000
vt 0.000000 0.000000
vt 1.000000 0.000000
vt 0.000000 1.000000
vt 0.000000 0.000000
vt 1.000000 0.000000
vt 0.000000 1.000000
vt 0.000000 0.000000
vt 1.000000 0.000000
vt 0.000000 1.000000
vt 0.000000 0.000000
vt 1.000000 0.000000
vt 0.000000 1.000000
vt 0.000000 0.000000
vt 1.000000 0.000000
vt 0.000000 1.000000
vt 0.000000 0.000000
vt 1.000000 0.000000
vt 0.000000 1.000000
vt 0.000000 0.000000
vt 1.000000 0.000000
vt 0.000000 1.000000
vt 0.000000 0.000000
vt 1.000000 0.000000
vt 0.000000 1.000000
vt 0.000000 0.000000
vt 1.000000 0.000000
vt 0.000000 1.000000
vt 0.000000 0.000000
vt 1.000000 0.000000
vt 0.000000 1.000000
vt 0.000000 0.000000
vt 1.000000 0.000000
vt 0.000000 1.000000
vt 0.000000 0.000000
vt 1.000000 0.000000
vt 0.000000 1.000000
vt 0.000000 0.000000
vt 1.000000 0.000000
vt 0.000000 1.000000
vt 0.000000 0.000000
vt 1.000000 0.000000
vt 0.000000 1.000000
vt 0.000000 0.000000
vt 1.000000 0.000000
vt 0.000000 1.000000
vt 0.000000 0.000000
vt 1.000000 0.000000
vt 0.000000 1.000000
vt 0.000000 0.000000
vt 1.000000 0.000000
vt 0.000000 1.000000
vt 0.000000 0.000000
vt 1.000000 0.000000
vt 0.000000 1.000000
vt 0.000000 0.000000
vt 1.000000 0.000000
vt 0.000000 1.000000
vt 0.000000 0.000000
vt 1.000000 0.000000
vt 0.000000 1.000000
vt 0.000000 0.000000
vt 1.000000 0.000000
vt 0.000000 1.000000
vt 0.000000 0.000000
vt 1.000000 0.000000
vt 0.000000 1.000000
vt 0.000000 0.000000
vt 1.000000 0.000000
vt 0.000000 1.000000
vt 0.000000 0.000000
vt 1.000000 0.000000
vt 0.000000 1.000000
vt 0.000000 0.000000
vt 1.000000 1.000000
vt 1.000000 1.000000
vt 1.000000 1.000000
vt 1.000000 1.000000
vt 1.000000 1.000000
vt 1.000000 1.000000
vt 1.000000 1.000000
vt 1.000000 1.000000
vt 1.000000 1.000000
vt 1.000000 1.000000
vt 1.000000 1.000000
vt 1.000000 1.000000
vt 1.000000 1.000000
vt 1.000000 1.000000
vt 1.000000 1.000000
vt 1.000000 1.000000
vt 1.000000 1.000000
vt 1.000000 1.000000
vt 1.000000 1.000000
vt 1.000000 1.000000
vt 1.000000 1.000000
vt 1.000000 1.000000
vt 1.000000 1.000000
vt 1.000000 1.000000
vt 1.000000 1.000000
vt 1.000000 1.000000
vt 1.000000 1.000000
vt 1.000000 1.000000
vt 1.000000 1.000000
vt 1.000000 1.000000
vt 1.000000 1.000000
vt 1.000000 1.000000
vn 0.0000 0.0000 1.0000
vn -0.0010 -0.0010 1.0000
vn 0.0010 0.0010 1.0000
usemtl ChessBoardWhite
s off
f 81/129/4 82/130/4 80/131/4
f 84/132/4 85/133/4 83/134/4
f 88/135/4 81/136/4 87/137/4
f 91/138/4 92/139/4 90/140/4
f 95/141/4 96/142/4 94/143/4
f 96/144/4 99/145/4 98/146/4
f 101/147/4 102/148/4 100/149/4
f 92/150/4 104/151/4 103/152/4
f 106/153/4 107/154/4 105/155/4
f 82/156/4 109/157/4 108/158/4
f 99/159/4 106/160/4 111/161/4
f 102/162/4 113/163/4 112/164/4
f 104/165/4 115/166/4 114/167/4
f 115/168/4 117/169/4 116/170/4
f 119/171/4 120/172/4 118/173/4
f 113/174/4 122/175/4 121/176/4
f 124/177/4 125/178/4 123/179/4
f 127/180/4 128/181/4 126/182/4
f 131/183/4 124/184/4 130/185/4
f 134/186/4 135/187/4 133/188/4
f 138/189/4 139/190/4 137/191/4
f 139/192/4 142/193/4 141/194/4
f 144/195/4 145/196/4 143/197/4
f 135/198/4 147/199/4 146/200/4
f 148/201/4 84/202/4 89/203/4
f 125/204/5 150/205/5 149/206/5
f 142/207/4 148/208/4 152/209/4
f 145/210/4 154/211/4 153/212/4
f 147/213/4 156/214/4 155/215/4
f 156/216/4 88/217/4 97/218/4
f 158/219/4 91/220/4 157/221/4
f 154/222/4 95/223/4 93/224/4
f 81/129/4 83/225/4 82/130/4
f 84/132/4 86/226/4 85/133/4
f 88/135/4 89/227/4 81/136/4
f 91/138/4 93/228/4 92/139/4
f 95/141/4 97/229/4 96/142/4
f 96/144/4 87/230/4 99/145/4
f 101/147/4 90/231/4 102/148/4
f 92/150/4 94/232/4 104/151/4
f 106/153/4 108/233/4 107/154/4
f 82/156/4 110/234/4 109/157/4
f 99/159/4 80/235/4 106/160/4
f 102/162/4 103/236/4 113/163/4
f 104/165/4 98/237/4 115/166/4
f 115/168/4 111/238/4 117/169/4
f 119/171/4 112/239/4 120/172/4
f 113/174/4 114/240/4 122/175/4
f 124/177/4 126/241/4 125/178/4
f 127/180/4 129/242/4 128/181/4
f 131/183/4 132/243/4 124/184/4
f 134/186/4 136/244/4 135/187/4
f 138/189/4 140/245/4 139/190/4
f 139/192/4 130/246/4 142/193/4
f 144/195/4 133/247/4 145/196/4
f 135/198/4 137/248/4 147/199/4
f 148/201/6 149/249/6 84/202/6
f 125/204/4 151/250/4 150/205/4
f 142/207/4 123/251/4 148/208/4
f 145/210/4 146/252/4 154/211/4
f 147/213/4 141/253/4 156/214/4
f 156/216/4 152/254/4 88/217/4
f 158/219/4 153/255/4 91/220/4
f 154/222/4 155/256/4 95/223/4
o Cube
v -8.000000 8.000000 -0.054093
v 8.000000 8.000000 -0.054093
v -8.000000 -8.000000 -0.054093
v 8.000000 -8.000000 -0.054093
v 8.415051 8.415051 -0.228868
v -8.415051 8.415051 -0.228868
v 8.415051 -8.415051 -0.228868
v -8.415051 -8.415051 -0.228868
v 8.534891 8.534891 -0.586509
v -8.534891 8.534891 -0.586509
v 8.534891 -8.534891 -0.586509
v -8.534891 -8.534891 -0.586509
v 8.352103 8.352103 0.015691
v 8.415051 8.415051 -0.056919
v -8.415051 8.415051 -0.056919
v -8.352103 8.352103 0.015691
v 8.352103 -8.352103 0.015691
v 8.415051 -8.415051 -0.056919
v -8.352103 -8.352103 0.015691
v -8.415051 -8.415051 -0.056919
v -8.071921 8.071921 0.176742
v -8.000000 8.000000 0.176462
v 8.000000 8.000000 0.176462
v 8.071921 8.071921 0.176742
v -8.000000 -8.000000 0.176462
v -8.071921 -8.071921 0.176742
v 8.000000 -8.000000 0.176462
v 8.071921 -8.071921 0.176742
v 8.518015 8.518015 -0.407040
v 8.534891 8.534891 -0.465467
v -8.534891 8.534891 -0.465467
v -8.518015 8.518015 -0.407040
v 8.518015 -8.518015 -0.407040
v 8.534891 -8.534891 -0.465467
v -8.518015 -8.518015 -0.407040
v -8.534891 -8.534891 -0.465467
vt 0.968664 0.785304
vt 0.968664 0.583441
vt 0.031336 0.583441
vt 0.031336 0.785304
vt 0.027122 0.785548
vt 0.972878 0.785548
vt 0.989292 0.644540
vt 0.010708 0.644540
vt 0.972878 0.785548
vt 0.027122 0.785548
vt 0.010708 0.644540
vt 0.989292 0.644540
vt 0.031336 0.785304
vt 0.031336 0.583441
vt 0.968664 0.583441
vt 0.968664 0.785304
vt 0.968664 0.968664
vt 0.031336 0.968664
vt 0.031336 0.031336
vt 0.968664 0.031336
vt 0.992979 0.580966
vt 0.007021 0.580966
vt 0.007021 0.430417
vt 0.992979 0.430417
vt 0.007021 0.580966
vt 0.007021 0.430417
vt 0.992979 0.580966
vt 0.007021 0.580966
vt 0.007021 0.430417
vt 0.992979 0.430417
vt 0.027122 0.785548
vt 0.010708 0.644540
vt 0.031336 0.583441
vt 0.031336 0.785304
vt 0.968664 0.583441
vt 0.968664 0.785304
vt 1.000000 0.223263
vt 0.000000 0.223263
vt 0.000000 0.117284
vt 1.000000 0.117284
vt 0.000000 0.223263
vt 0.000000 0.117284
vt 1.000000 0.223263
vt 0.000000 0.223263
vt 0.000000 0.117284
vt 1.000000 0.117284
vt 0.000989 0.274418
vt 0.999011 0.274418
vt 0.000000 1.000000
vt 1.000000 1.000000
vt 1.000000 0.000000
vt 0.000000 0.000000
vt 0.999011 0.274418
vt 0.000989 0.274418
vt 0.000989 0.274418
vt 0.992979 0.430417
vt 0.999011 0.274418
vt 0.992979 0.580966
vt 0.989292 0.644540
vt 0.027122 0.972878
vt 0.027122 0.027122
vt 0.031336 0.031336
vt 0.031336 0.968664
vt 0.972878 0.972878
vt 0.968664 0.968664
vt 0.972878 0.027122
vt 0.968664 0.031336
vt 0.972878 0.785548
vt 1.000000 0.223263
vt 1.000000 0.117284
vn 1.0000 0.0000 0.0000
vn 0.4983 0.0000 0.8670
vn -0.4983 0.0000 0.8670
vn -1.0000 0.0000 0.0000
vn 0.0000 0.0000 1.0000
vn 0.0000 -1.0000 0.0000
vn 0.0000 -0.4983 0.8670
vn 0.0000 1.0000 0.0000
vn -0.8658 0.0000 0.5003
vn 0.0000 0.0000 -1.0000
vn 0.8658 0.0000 0.5003
vn 0.0000 -0.8658 0.5003
vn 0.0000 0.8658 0.5003
vn 0.0000 0.7556 0.6550
vn 0.7556 0.0000 0.6550
vn 0.0000 -0.7556 0.6550
vn -0.7556 0.0000 0.6550
vn 0.0000 -0.0039 1.0000
vn -0.0039 0.0000 1.0000
vn 0.0000 0.0039 1.0000
vn 0.0039 0.0000 1.0000
vn 0.0000 0.4983 0.8670
vn 0.0000 0.9607 0.2775
vn 0.9607 0.0000 0.2775
vn 0.0000 -0.9607 0.2775
vn -0.9607 0.0000 0.2775
usemtl Artificial_Marble_8
s off
f 183/257/7 161/258/7 159/259/7 180/260/7
f 182/261/8 186/262/8 175/263/8 171/264/8
f 184/265/9 179/266/9 174/267/9 177/268/9
f 181/269/10 160/270/10 162/271/10 185/272/10
f 162/273/11 160/274/11 159/275/11 161/276/11
f 176/277/12 178/278/12 166/279/12 165/280/12
f 172/281/7 176/277/7 165/280/7 163/282/7
f 178/283/10 173/284/10 164/285/10 166/286/10
f 186/262/13 184/287/13 177/288/13 175/263/13
f 185/272/14 162/271/14 161/289/14 183/290/14
f 180/260/12 159/259/12 160/291/12 181/292/12
f 192/293/12 194/294/12 170/295/12 169/296/12
f 188/297/7 192/293/7 169/296/7 167/298/7
f 194/299/10 189/300/10 168/301/10 170/302/10
f 166/286/15 164/285/15 190/303/15 193/304/15
f 167/305/16 169/306/16 170/307/16 168/308/16
f 163/282/17 165/280/17 191/309/17 187/310/17
f 165/280/18 166/279/18 193/311/18 191/309/18
f 164/285/19 163/312/19 187/313/19 190/303/19
f 172/314/20 173/284/20 174/267/20 171/315/20
f 176/277/21 172/281/21 171/264/21 175/263/21
f 178/278/22 176/277/22 175/263/22 177/288/22
f 173/284/23 178/283/23 177/268/23 174/267/23
f 173/284/14 172/314/14 163/312/14 164/285/14
f 182/316/24 179/317/24 180/318/24 181/319/24
f 186/320/25 182/316/25 181/319/25 185/321/25
f 184/322/26 186/320/26 185/321/26 183/323/26
f 179/317/27 184/322/27 183/323/27 180/318/27
f 179/266/28 182/324/28 171/315/28 174/267/28
f 188/325/29 189/300/29 190/303/29 187/313/29
f 192/293/30 188/297/30 187/310/30 191/309/30
f 194/294/31 192/293/31 191/309/31 193/311/31
f 189/300/32 194/299/32 193/304/32 190/303/32
f 189/300/14 188/325/14 167/326/14 168/301/14
