# Blender v3.0.0 OBJ File: 'axis.blend'
# www.blender.org
mtllib models/axis/axis.mtl
o Cube
v 0.050000 -0.050000 -0.050000
v 0.050000 -0.050000 0.050000
v -0.050000 -0.050000 -0.050000
v -0.050000 -0.050000 0.050000
v 0.050000 0.050000 -0.050000
v 0.050000 0.050000 0.050000
v -0.050000 0.050000 -0.050000
v -0.050000 0.050000 0.050000
vt 0.625000 0.000000
vt 0.375000 0.250000
vt 0.375000 0.000000
vt 0.625000 0.250000
vt 0.375000 0.500000
vt 0.625000 0.500000
vt 0.375000 0.750000
vt 0.625000 0.750000
vt 0.375000 1.000000
vt 0.125000 0.750000
vt 0.125000 0.500000
vt 0.875000 0.500000
vt 0.625000 1.000000
vt 0.875000 0.750000
vn 0.0000 -1.0000 0.0000
vn -1.0000 0.0000 0.0000
vn 0.0000 1.0000 0.0000
vn 1.0000 0.0000 0.0000
vn 0.0000 0.0000 -1.0000
vn 0.0000 0.0000 1.0000
usemtl White
s off
f 2/1/1 3/2/1 1/3/1
f 4/4/2 7/5/2 3/2/2
f 8/6/3 5/7/3 7/5/3
f 6/8/4 1/9/4 5/7/4
f 7/5/5 1/10/5 3/11/5
f 4/12/6 6/8/6 8/6/6
f 2/1/1 4/4/1 3/2/1
f 4/4/2 8/6/2 7/5/2
f 8/6/3 6/8/3 5/7/3
f 6/8/4 2/13/4 1/9/4
f 7/5/5 5/7/5 1/10/5
f 4/12/6 2/14/6 6/8/6
o Axis-Z_Cylinder
v 0.000000 0.000000 0.050000
v -0.025000 0.000000 0.050000
v -0.025000 0.000000 0.801846
v -0.012500 0.021651 0.050000
v -0.012500 0.021651 0.801846
v 0.012500 0.021651 0.050000
v 0.012500 0.021651 0.801846
v 0.025000 -0.000000 0.050000
v 0.025000 -0.000000 0.801846
v 0.012500 -0.021651 0.050000
v 0.012500 -0.021651 0.801846
v -0.012500 -0.021651 0.050000
v -0.012500 -0.021651 0.801846
v 0.100000 -0.100000 0.800000
v 0.000000 0.000000 1.000000
v -0.100000 -0.100000 0.800000
v 0.100000 0.100000 0.800000
v -0.100000 0.100000 0.800000
vt 0.750000 0.250000
vt 0.750000 0.490000
vt 0.957846 0.370000
vt 1.000000 1.000000
vt 0.833333 0.500000
vt 1.000000 0.500000
vt 0.957846 0.130000
vt 0.833333 1.000000
vt 0.666667 0.500000
vt 0.750000 0.010000
vt 0.666667 1.000000
vt 0.500000 0.500000
vt 0.542154 0.130000
vt 0.500000 1.000000
vt 0.333333 0.500000
vt 0.542154 0.370000
vt 0.333333 1.000000
vt 0.166667 0.500000
vt 0.166667 1.000000
vt -0.000000 0.500000
vt 0.375000 0.000000
vt 0.625000 0.250000
vt 0.375000 0.250000
vt 0.625000 0.500000
vt 0.375000 0.500000
vt 0.625000 0.750000
vt 0.375000 0.750000
vt 0.625000 1.000000
vt 0.375000 1.000000
vt 0.250000 0.490000
vt 0.000000 0.000000
vt 0.457846 0.370000
vt 0.000000 0.000000
vt 0.042154 0.370000
vt 0.250000 0.010000
vt 0.000000 0.000000
vt 0.042154 0.130000
vt 0.000000 0.000000
vt 0.457846 0.130000
vt 0.000000 0.000000
vt 0.000000 0.000000
vt -0.000000 1.000000
vt 0.000000 0.000000
vt 0.000000 0.000000
vn 0.0000 0.0000 -1.0000
vn -0.8660 0.5000 0.0000
vn 0.0000 1.0000 0.0000
vn 0.8660 0.5000 0.0000
vn 0.8660 -0.5000 0.0000
vn 0.0000 -1.0000 0.0000
vn -0.8660 -0.5000 0.0000
vn 0.0000 -0.8944 0.4472
vn -0.8944 0.0000 0.4472
vn 0.0000 0.8944 0.4472
vn 0.8944 0.0000 0.4472
vn 0.0139 -0.0080 -0.9999
vn 0.0139 0.0080 -0.9999
vn -0.0139 0.0080 -0.9999
vn -0.0139 -0.0080 -0.9999
vn -0.0246 0.0000 -0.9997
vn 0.0000 -0.0236 -0.9997
vn 0.0246 0.0000 -0.9997
vn 0.0000 0.0236 -0.9997
usemtl Blue.001
s off
f 9/15/7 10/16/7 12/17/7
f 11/18/8 12/19/8 10/20/8
f 9/15/7 12/17/7 14/21/7
f 13/22/9 14/23/9 12/19/9
f 9/15/7 14/21/7 16/24/7
f 15/25/10 16/26/10 14/23/10
f 9/15/7 16/24/7 18/27/7
f 17/28/11 18/29/11 16/26/11
f 9/15/7 18/27/7 20/30/7
f 19/31/12 20/32/12 18/29/12
f 9/15/7 20/30/7 10/16/7
f 21/33/13 10/34/13 20/32/13
f 22/35/14 23/36/14 24/37/14
f 24/37/15 23/38/15 26/39/15
f 26/39/16 23/40/16 25/41/16
f 25/41/17 23/42/17 22/43/17
f 11/44/18 26/45/18 13/46/18
f 24/47/19 11/44/19 21/48/19
f 17/49/20 22/50/20 19/51/20
f 25/52/21 17/49/21 15/53/21
f 22/50/22 17/49/22 25/52/22
f 25/52/23 13/54/23 26/45/23
f 26/45/24 11/44/24 24/47/24
f 21/55/25 22/50/25 24/47/25
f 11/18/8 13/22/8 12/19/8
f 13/22/9 15/25/9 14/23/9
f 15/25/10 17/28/10 16/26/10
f 17/28/11 19/31/11 18/29/11
f 19/31/12 21/33/12 20/32/12
f 21/33/13 11/56/13 10/34/13
f 25/52/23 15/57/23 13/54/23
f 21/55/25 19/58/25 22/50/25
o Axis-X_Cylinder.001
v 0.050000 0.000000 0.000000
v 0.050000 0.000000 0.025000
v 0.801846 0.000000 0.025000
v 0.050000 0.021651 0.012500
v 0.801846 0.021651 0.012500
v 0.050000 0.021651 -0.012500
v 0.801846 0.021651 -0.012500
v 0.050000 -0.000000 -0.025000
v 0.801846 -0.000000 -0.025000
v 0.050000 -0.021651 -0.012500
v 0.801846 -0.021651 -0.012500
v 0.050000 -0.021651 0.012500
v 0.801846 -0.021651 0.012500
v 0.800000 -0.100000 -0.100000
v 1.000000 0.000000 -0.000000
v 0.800000 -0.100000 0.100000
v 0.800000 0.100000 -0.100000
v 0.800000 0.100000 0.100000
vt 0.750000 0.250000
vt 0.750000 0.490000
vt 0.957846 0.370000
vt 1.000000 1.000000
vt 0.833333 0.500000
vt 1.000000 0.500000
vt 0.957846 0.130000
vt 0.833333 1.000000
vt 0.666667 0.500000
vt 0.750000 0.010000
vt 0.666667 1.000000
vt 0.500000 0.500000
vt 0.542154 0.130000
vt 0.500000 1.000000
vt 0.333333 0.500000
vt 0.542154 0.370000
vt 0.333333 1.000000
vt 0.166667 0.500000
vt 0.166667 1.000000
vt -0.000000 0.500000
vt 0.375000 0.000000
vt 0.625000 0.250000
vt 0.375000 0.250000
vt 0.625000 0.500000
vt 0.375000 0.500000
vt 0.625000 0.750000
vt 0.375000 0.750000
vt 0.625000 1.000000
vt 0.375000 1.000000
vt 0.250000 0.490000
vt 0.000000 0.000000
vt 0.457846 0.370000
vt 0.000000 0.000000
vt 0.042154 0.370000
vt 0.250000 0.010000
vt 0.000000 0.000000
vt 0.042154 0.130000
vt 0.000000 0.000000
vt 0.457846 0.130000
vt 0.000000 0.000000
vt 0.000000 0.000000
vt -0.000000 1.000000
vt 0.000000 0.000000
vt 0.000000 0.000000
vn -1.0000 0.0000 0.0000
vn 0.0000 0.5000 0.8660
vn -0.0000 1.0000 -0.0000
vn -0.0000 0.5000 -0.8660
vn -0.0000 -0.5000 -0.8660
vn 0.0000 -1.0000 0.0000
vn 0.0000 -0.5000 0.8660
vn 0.4472 -0.8944 0.0000
vn 0.4472 0.0000 0.8944
vn 0.4472 0.8944 0.0000
vn 0.4472 0.0000 -0.8944
vn -0.9999 -0.0080 -0.0139
vn -0.9999 0.0080 -0.0139
vn -0.9999 0.0080 0.0139
vn -0.9999 -0.0080 0.0139
vn -0.9997 0.0000 0.0246
vn -0.9997 -0.0236 0.0000
vn -0.9997 0.0000 -0.0246
vn -0.9997 0.0236 0.0000
vn -0.9997 -0.0235 0.0000
vn -0.9997 0.0235 0.0000
usemtl Red.002
s off
f 27/59/26 28/60/26 30/61/26
f 29/62/27 30/63/27 28/64/27
f 27/59/26 30/61/26 32/65/26
f 31/66/28 32/67/28 30/63/28
f 27/59/26 32/65/26 34/68/26
f 33/69/29 34/70/29 32/67/29
f 27/59/26 34/68/26 36/71/26
f 35/72/30 36/73/30 34/70/30
f 27/59/26 36/71/26 38/74/26
f 37/75/31 38/76/31 36/73/31
f 27/59/26 38/74/26 28/60/26
f 39/77/32 28/78/32 38/76/32
f 40/79/33 41/80/33 42/81/33
f 42/81/34 41/82/34 44/83/34
f 44/83/35 41/84/35 43/85/35
f 43/85/36 41/86/36 40/87/36
f 29/88/37 44/89/37 31/90/37
f 42/91/38 29/88/38 39/92/38
f 35/93/39 40/94/39 37/95/39
f 43/96/40 35/93/40 33/97/40
f 40/94/41 35/93/41 43/96/41
f 43/96/42 31/98/42 44/89/42
f 44/89/43 29/88/43 42/91/43
f 39/99/44 40/94/44 42/91/44
f 29/62/27 31/66/27 30/63/27
f 31/66/28 33/69/28 32/67/28
f 33/69/29 35/72/29 34/70/29
f 35/72/30 37/75/30 36/73/30
f 37/75/31 39/77/31 38/76/31
f 39/77/32 29/100/32 28/78/32
f 43/96/45 33/101/45 31/98/45
f 39/99/46 37/102/46 40/94/46
o Axis-X.001_Cylinder.002
v 0.000000 0.050000 0.000000
v 0.000000 0.050000 0.025000
v -0.000000 0.801846 0.025000
v -0.021651 0.050000 0.012500
v -0.021651 0.801846 0.012500
v -0.021651 0.050000 -0.012500
v -0.021651 0.801846 -0.012500
v 0.000000 0.050000 -0.025000
v -0.000000 0.801846 -0.025000
v 0.021651 0.050000 -0.012500
v 0.021651 0.801846 -0.012500
v 0.021651 0.050000 0.012500
v 0.021651 0.801846 0.012500
v 0.100000 0.800000 -0.100000
v -0.000000 1.000000 -0.000000
v 0.100000 0.800000 0.100000
v -0.100000 0.800000 -0.100000
v -0.100000 0.800000 0.100000
vt 0.750000 0.250000
vt 0.750000 0.490000
vt 0.957846 0.370000
vt 1.000000 1.000000
vt 0.833333 0.500000
vt 1.000000 0.500000
vt 0.957846 0.130000
vt 0.833333 1.000000
vt 0.666667 0.500000
vt 0.750000 0.010000
vt 0.666667 1.000000
vt 0.500000 0.500000
vt 0.542154 0.130000
vt 0.500000 1.000000
vt 0.333333 0.500000
vt 0.542154 0.370000
vt 0.333333 1.000000
vt 0.166667 0.500000
vt 0.166667 1.000000
vt -0.000000 0.500000
vt 0.375000 0.000000
vt 0.625000 0.250000
vt 0.375000 0.250000
vt 0.625000 0.500000
vt 0.375000 0.500000
vt 0.625000 0.750000
vt 0.375000 0.750000
vt 0.625000 1.000000
vt 0.375000 1.000000
vt 0.250000 0.490000
vt 0.000000 0.000000
vt 0.457846 0.370000
vt 0.000000 0.000000
vt 0.042154 0.370000
vt 0.250000 0.010000
vt 0.000000 0.000000
vt 0.042154 0.130000
vt 0.000000 0.000000
vt 0.457846 0.130000
vt 0.000000 0.000000
vt 0.000000 0.000000
vt -0.000000 1.000000
vt 0.000000 0.000000
vt 0.000000 0.000000
vn 0.0000 -1.0000 0.0000
vn -0.5000 0.0000 0.8660
vn -1.0000 -0.0000 -0.0000
vn -0.5000 -0.0000 -0.8660
vn 0.5000 -0.0000 -0.8660
vn 1.0000 0.0000 0.0000
vn 0.5000 0.0000 0.8660
vn 0.8944 0.4472 0.0000
vn 0.0000 0.4472 0.8944
vn -0.8944 0.4472 0.0000
vn 0.0000 0.4472 -0.8944
vn 0.0080 -0.9999 -0.0139
vn -0.0080 -0.9999 -0.0139
vn -0.0080 -0.9999 0.0139
vn 0.0080 -0.9999 0.0139
vn 0.0000 -0.9997 0.0246
vn 0.0236 -0.9997 0.0000
vn 0.0000 -0.9997 -0.0246
vn -0.0236 -0.9997 0.0000
usemtl Red.003
s off
f 45/103/47 46/104/47 48/105/47
f 47/106/48 48/107/48 46/108/48
f 45/103/47 48/105/47 50/109/47
f 49/110/49 50/111/49 48/107/49
f 45/103/47 50/109/47 52/112/47
f 51/113/50 52/114/50 50/111/50
f 45/103/47 52/112/47 54/115/47
f 53/116/51 54/117/51 52/114/51
f 45/103/47 54/115/47 56/118/47
f 55/119/52 56/120/52 54/117/52
f 45/103/47 56/118/47 46/104/47
f 57/121/53 46/122/53 56/120/53
f 58/123/54 59/124/54 60/125/54
f 60/125/55 59/126/55 62/127/55
f 62/127/56 59/128/56 61/129/56
f 61/129/57 59/130/57 58/131/57
f 47/132/58 62/133/58 49/134/58
f 60/135/59 47/132/59 57/136/59
f 53/137/60 58/138/60 55/139/60
f 61/140/61 53/137/61 51/141/61
f 58/138/62 53/137/62 61/140/62
f 61/140/63 49/142/63 62/133/63
f 62/133/64 47/132/64 60/135/64
f 57/143/65 58/138/65 60/135/65
f 47/106/48 49/110/48 48/107/48
f 49/110/49 51/113/49 50/111/49
f 51/113/50 53/116/50 52/114/50
f 53/116/51 55/119/51 54/117/51
f 55/119/52 57/121/52 56/120/52
f 57/121/53 47/144/53 46/122/53
f 61/140/63 51/145/63 49/142/63
f 57/143/65 55/146/65 58/138/65
